<?xml version="1.0" encoding="utf-8"?>
<!-- Generator: Adobe Illustrator 21.1.0, SVG Export Plug-In . SVG Version: 6.00 Build 0)  -->
<svg version="1.1" id="Layer_1" xmlns="http://www.w3.org/2000/svg" xmlns:xlink="http://www.w3.org/1999/xlink" x="0px" y="0px"
	 viewBox="0 0 306.7 207" style="enable-background:new 0 0 306.7 207;" xml:space="preserve">
<style type="text/css">
	.st0{clip-path:url(#SVGID_2_);}
	.st1{clip-path:url(#SVGID_4_);}
	.st2{fill:#FFFFFF;}
	.st3{clip-path:url(#SVGID_6_);}
	.st4{clip-path:url(#SVGID_8_);}
	.st5{clip-path:url(#SVGID_10_);}
	.st6{fill:#B9BBBD;}
	.st7{clip-path:url(#SVGID_12_);}
	.st8{opacity:0.4;fill:url(#SVGID_13_);}
	.st9{opacity:0.8;fill:url(#SVGID_14_);}
	.st10{opacity:0.8;fill:url(#SVGID_15_);}
	.st11{opacity:0.8;fill:url(#SVGID_16_);}
	.st12{clip-path:url(#SVGID_18_);}
	.st13{opacity:0.8;fill:url(#SVGID_19_);}
	.st14{opacity:0.8;fill:url(#SVGID_20_);}
	.st15{opacity:0.8;fill:url(#SVGID_21_);}
	.st16{clip-path:url(#SVGID_23_);}
	.st17{clip-path:url(#SVGID_25_);}
	.st18{fill:#A1A6AC;}
	.st19{filter:url(#Adobe_OpacityMaskFilter);}
	.st20{fill:url(#SVGID_26_);}
	.st21{mask:url(#SUP-494244222-sm.psd_3_);}
	.st22{opacity:0.8;fill:url(#SVGID_27_);}
	.st23{opacity:0.8;fill:url(#SVGID_28_);}
	.st24{opacity:0.8;fill:url(#SVGID_29_);}
	.st25{clip-path:url(#SVGID_31_);}
	.st26{clip-path:url(#SVGID_33_);}
	.st27{opacity:0.8;fill:url(#SVGID_34_);}
	.st28{opacity:0.8;fill:url(#SVGID_35_);}
	.st29{opacity:0.8;fill:url(#SVGID_36_);}
	.st30{fill:#00AEEF;}
	.st31{fill:#757780;}
	.st32{clip-path:url(#SVGID_38_);}
	.st33{opacity:0.8;fill:url(#SVGID_39_);}
	.st34{opacity:0.8;fill:url(#SVGID_40_);}
	.st35{opacity:0.8;fill:url(#SVGID_41_);}
	.st36{fill:none;stroke:#FFFFFF;stroke-width:5;stroke-miterlimit:10;}
	.st37{clip-path:url(#SVGID_43_);}
	.st38{opacity:0.8;fill:url(#SVGID_44_);}
	.st39{opacity:0.8;fill:url(#SVGID_45_);}
	.st40{opacity:0.8;fill:url(#SVGID_46_);}
	.st41{fill:none;}
	.st42{clip-path:url(#SVGID_48_);}
	.st43{clip-path:url(#SVGID_50_);}
	.st44{opacity:0.4;fill:url(#SVGID_51_);}
	.st45{opacity:0.8;fill:url(#SVGID_52_);}
	.st46{opacity:0.8;fill:url(#SVGID_53_);}
	.st47{opacity:0.8;fill:url(#SVGID_54_);}
	.st48{clip-path:url(#SVGID_56_);}
	.st49{clip-path:url(#SVGID_58_);}
	.st50{fill:#231F20;}
	.st51{opacity:0.8;fill:url(#SVGID_59_);}
	.st52{opacity:0.8;fill:url(#SVGID_60_);}
	.st53{opacity:0.8;fill:url(#SVGID_61_);}
	.st54{fill:#00ADEE;}
	.st55{clip-path:url(#SVGID_63_);}
	.st56{fill:#808285;}
	.st57{clip-path:url(#SVGID_65_);}
	.st58{clip-path:url(#SVGID_67_);}
	.st59{fill:none;stroke:#FFFFFF;stroke-width:0.75;stroke-miterlimit:10;}
	.st60{fill:none;stroke:#FBC9A9;stroke-miterlimit:10;}
	.st61{fill-rule:evenodd;clip-rule:evenodd;fill:#FFFFFF;}
	.st62{fill:#808184;}
	.st63{fill:none;stroke:#FFFFFF;stroke-width:3.3441;stroke-miterlimit:10;}
	.st64{fill:#00ADEE;stroke:#00ADEE;stroke-width:10;stroke-miterlimit:10;}
	.st65{fill:none;stroke:#FFFFFF;stroke-width:2.1436;stroke-miterlimit:10;}
	.st66{fill:#FFFFFC;}
	.st67{fill:none;stroke:#FFFFFC;stroke-width:3.7938;stroke-miterlimit:10;}
	.st68{fill:none;stroke:#FFFFFC;stroke-width:3;stroke-linecap:round;stroke-linejoin:round;stroke-miterlimit:10;}
	.st69{fill:none;stroke:#FFFFFF;stroke-width:3.6905;stroke-miterlimit:10;}
	.st70{clip-path:url(#SVGID_71_);}
	.st71{clip-path:url(#SVGID_73_);}
	.st72{clip-path:url(#SVGID_75_);}
	.st73{clip-path:url(#SVGID_77_);}
	.st74{fill-rule:evenodd;clip-rule:evenodd;fill:#FFFFFC;}
	.st75{clip-path:url(#SVGID_79_);fill:none;stroke:#FFFFFF;stroke-width:2.1436;stroke-miterlimit:10;}
	.st76{clip-path:url(#SVGID_81_);}
	.st77{clip-path:url(#SVGID_83_);}
	.st78{fill:none;stroke:#81D7F7;stroke-miterlimit:10;}
	.st79{filter:url(#Adobe_OpacityMaskFilter_1_);}
	.st80{fill:url(#SVGID_85_);}
	.st81{mask:url(#SVGID_84_);}
	.st82{opacity:0.8;fill:url(#SVGID_86_);}
	.st83{opacity:0.8;fill:url(#SVGID_87_);}
	.st84{opacity:0.8;fill:url(#SVGID_88_);}
	.st85{clip-path:url(#SVGID_90_);}
	.st86{opacity:0.8;fill:url(#SVGID_91_);}
	.st87{opacity:0.8;fill:url(#SVGID_92_);}
	.st88{opacity:0.8;fill:url(#SVGID_93_);}
	.st89{fill:none;stroke:#A7A8AA;stroke-width:1.0099;stroke-miterlimit:10;}
	.st90{filter:url(#Adobe_OpacityMaskFilter_2_);}
	.st91{fill:url(#SVGID_95_);}
	.st92{mask:url(#SVGID_94_);}
	.st93{opacity:0.8;fill:url(#SVGID_96_);}
	.st94{opacity:0.8;fill:url(#SVGID_97_);}
	.st95{opacity:0.8;fill:url(#SVGID_98_);}
	.st96{clip-path:url(#SVGID_100_);}
	.st97{opacity:0.8;fill:url(#SVGID_101_);}
	.st98{opacity:0.8;fill:url(#SVGID_102_);}
	.st99{opacity:0.8;fill:url(#SVGID_103_);}
	.st100{fill:none;stroke:#D6D7D8;stroke-width:1.0099;stroke-miterlimit:10;}
	.st101{clip-path:url(#SVGID_105_);}
	.st102{clip-path:url(#SVGID_107_);}
	.st103{clip-path:url(#SVGID_111_);}
	.st104{clip-path:url(#SVGID_113_);}
	.st105{clip-path:url(#SVGID_115_);}
	.st106{clip-path:url(#SVGID_117_);}
	.st107{fill:#636466;}
	.st108{fill:#A6A8AB;}
	.st109{fill:none;stroke:#FFFFFF;stroke-width:2.5;stroke-miterlimit:10;}
</style>
<g>
	<g>
		
			<ellipse transform="matrix(0.9945 -0.1047 0.1047 0.9945 -10.7573 16.5841)" class="st109" cx="152.5" cy="110.7" rx="2.7" ry="3.7"/>
		<g>
			<polygon class="st41" points="120.1,46.7 141.1,55.4 141.1,38.2 120.1,30.7 			"/>
			<path class="st2" d="M143.4,36.6l-25.6-9v20.7l25.6,10.6V36.6z M141.1,55.4l-21-8.7v-16l21,7.4V55.4z"/>
			<path class="st2" d="M113.3,21.1v30.2L148,65.6V33.3L113.3,21.1z M145.7,62.2l-30.1-12.4V24.3L145.7,35V62.2z"/>
		</g>
		<g>
			<polygon class="st41" points="119.5,81.5 141.8,91.3 141.8,75.4 119.5,66.8 			"/>
			<path class="st2" d="M143.9,74l-26.4-10.2v19l26.4,11.6V74z M141.8,91.3l-22.3-9.8V66.8l22.3,8.6V91.3z"/>
			<path class="st2" d="M113.3,57.8v27.8l34.7,15.2V71.2L113.3,57.8z M145.9,97.6l-30.6-13.4V60.8l30.6,11.8V97.6z"/>
		</g>
		<g>
			<polygon class="st41" points="118.4,169 121.2,169.8 121.2,105.8 118.4,104.6 			"/>
			<path class="st2" d="M123.4,104.3l-7.3-3.1v69.5l7.3,2.2V104.3z M121.2,169.8l-2.8-0.8v-64.4l2.8,1.2V169.8z"/>
			<path class="st2" d="M111.6,94.5v79.6l16.4,4.8v-77.6L111.6,94.5z M125.7,175.9l-11.8-3.5V97.8l11.8,5V175.9z"/>
		</g>
		<polygon class="st41" points="137.4,175.7 141.2,176.7 141.2,113.4 137.4,112.1 		"/>
		<path class="st2" d="M143.5,111.8l-8.3-3v68.6l8.3,2.2V111.8z M141.2,176.7l-3.8-1v-63.7l3.8,1.3V176.7z"/>
		<g>
			<g>
				<polygon class="st41" points="132.9,105.7 132.9,179.2 136.1,180.1 145.7,180.1 145.7,110.2 				"/>
			</g>
			<g>
				<polygon class="st41" points="148,108.6 148,180.1 190.6,180.1 190.6,8.4 105.3,8.4 105.3,180.1 130.6,180.1 130.6,102.5 				
					"/>
			</g>
			<g>
				<polygon class="st2" points="148,185.6 148,183.5 140.2,183.5 				"/>
			</g>
			<g>
				<polygon class="st2" points="132.9,179.2 132.9,105.7 145.7,110.2 145.7,180.1 148,180.1 148,108.6 130.6,102.5 130.6,180.1 
					136.1,180.1 				"/>
			</g>
			<g>
				<polygon class="st2" points="145.7,180.1 145.7,182.6 136.1,180.1 130.6,180.1 130.6,180.9 140.2,183.5 148,183.5 148,180.1 
									"/>
			</g>
		</g>
	</g>
	<path class="st2" d="M195.5,3.5h-95.1v181.3l8.4,1.1l54,19V185h32.7V3.5z M159.1,199.7l-53.7-18.9V9.6l53.7,18.9V199.7z M192.5,182
		h-29.7V25.9L107.7,6.5h84.8V182z"/>
</g>
</svg>
