<svg id="Layer_1" xmlns="http://www.w3.org/2000/svg" viewBox="0 0 306.7 207">
    <style>
        .door-detail {
            fill: #fff
        }

        .no-fill {
            fill: none
        }

        .outer-door {
            fill: none;
            stroke: #fff;
            stroke-width: 3.6905;
            stroke-miterlimit: 10
        }
    </style>
    <path transform="rotate(-180 153.333 102.5)" class="outer-door" d="M108.5 14.1h89.6v176.8h-89.6z" />
    <circle class="outer-door" cx="189" cy="97.6" r="3.8" />
    <path class="no-fill" d="M130 35.3h46.7v18.2H130z" />
    <path class="door-detail" d="M179 33h-51.3v22.8H179V33zm-2.3 20.5H130V35.3h46.7v18.2z" />
    <path class="door-detail" d="M123.1 28.4v32h60.5v-32h-60.5zm58.2 29.7h-55.9V30.7h55.9v27.4z" />
    <path class="no-fill" d="M129.3 73.6h48v13.8h-48z" />
    <path class="door-detail" d="M179.4 71.5h-52.2v18h52.2v-18zm-2.1 15.9h-48V73.6h48v13.8z" />
    <path class="door-detail" d="M123.1 67.3v26.3h60.5V67.3h-60.5zm58.4 24.3h-56.4V69.4h56.4v22.2z" />
    <path class="no-fill" d="M129.9 114.4h12.6v58.8h-12.6z" />
    <path class="door-detail" d="M144.8 112.1h-17.2v63.3h17.2v-63.3zm-2.3 61.1h-12.6v-58.8h12.6v58.8z" />
    <path class="door-detail" d="M123.1 107.5V180h26.3v-72.5h-26.3zm24 70.2h-21.8v-67.9h21.8v67.9z" />
    <g>
        <path class="no-fill" d="M164.1 114.4h12.6v58.8h-12.6z" />
        <path class="door-detail" d="M179 112.1h-17.2v63.3H179v-63.3zm-2.2 61.1h-12.6v-58.8h12.6v58.8z" />
        <path class="door-detail" d="M157.3 107.5V180h26.3v-72.5h-26.3zm24 70.2h-21.8v-67.9h21.8v67.9z" />
    </g>
</svg>