<?xml version="1.0" encoding="utf-8"?>
<!-- Generator: Adobe Illustrator 21.1.0, SVG Export Plug-In . SVG Version: 6.00 Build 0)  -->
<svg version="1.1" id="Layer_1" xmlns="http://www.w3.org/2000/svg" xmlns:xlink="http://www.w3.org/1999/xlink" x="0px" y="0px"
	 viewBox="0 0 306.7 207" style="enable-background:new 0 0 306.7 207;" xml:space="preserve">
<style type="text/css">
	.door-fill{fill:#FFFFFF;}
	.door-inner-fill{fill:none;}
	.door-knob{fill:none;stroke:#FFFFFF;stroke-width:2.5;stroke-miterlimit:10;}
</style>
<g>
	<g>
		
			<ellipse transform="matrix(0.9945 -0.1047 0.1047 0.9945 -10.7573 16.5841)" class="door-knob" cx="152.5" cy="110.7" rx="2.7" ry="3.7"/>
		<g>
			<polygon class="door-inner-fill" points="120.1,46.7 141.1,55.4 141.1,38.2 120.1,30.7 			"/>
			<path class="door-fill" d="M143.4,36.6l-25.6-9v20.7l25.6,10.6V36.6z M141.1,55.4l-21-8.7v-16l21,7.4V55.4z"/>
			<path class="door-fill" d="M113.3,21.1v30.2L148,65.6V33.3L113.3,21.1z M145.7,62.2l-30.1-12.4V24.3L145.7,35V62.2z"/>
		</g>
		<g>
			<polygon class="door-inner-fill" points="119.5,81.5 141.8,91.3 141.8,75.4 119.5,66.8 			"/>
			<path class="door-fill" d="M143.9,74l-26.4-10.2v19l26.4,11.6V74z M141.8,91.3l-22.3-9.8V66.8l22.3,8.6V91.3z"/>
			<path class="door-fill" d="M113.3,57.8v27.8l34.7,15.2V71.2L113.3,57.8z M145.9,97.6l-30.6-13.4V60.8l30.6,11.8V97.6z"/>
		</g>
		<g>
			<polygon class="door-inner-fill" points="118.4,169 121.2,169.8 121.2,105.8 118.4,104.6 			"/>
			<path class="door-fill" d="M123.4,104.3l-7.3-3.1v69.5l7.3,2.2V104.3z M121.2,169.8l-2.8-0.8v-64.4l2.8,1.2V169.8z"/>
			<path class="door-fill" d="M111.6,94.5v79.6l16.4,4.8v-77.6L111.6,94.5z M125.7,175.9l-11.8-3.5V97.8l11.8,5V175.9z"/>
		</g>
		<polygon class="door-inner-fill" points="137.4,175.7 141.2,176.7 141.2,113.4 137.4,112.1 		"/>
		<path class="door-fill" d="M143.5,111.8l-8.3-3v68.6l8.3,2.2V111.8z M141.2,176.7l-3.8-1v-63.7l3.8,1.3V176.7z"/>
		<g>
			<g>
				<polygon class="door-inner-fill" points="132.9,105.7 132.9,179.2 136.1,180.1 145.7,180.1 145.7,110.2 				"/>
			</g>
			<g>
				<polygon class="door-inner-fill" points="148,108.6 148,180.1 190.6,180.1 190.6,8.4 105.3,8.4 105.3,180.1 130.6,180.1 130.6,102.5 				
					"/>
			</g>
			<g>
				<polygon class="door-fill" points="148,185.6 148,183.5 140.2,183.5 				"/>
			</g>
			<g>
				<polygon class="door-fill" points="132.9,179.2 132.9,105.7 145.7,110.2 145.7,180.1 148,180.1 148,108.6 130.6,102.5 130.6,180.1 
					136.1,180.1 				"/>
			</g>
			<g>
				<polygon class="door-fill" points="145.7,180.1 145.7,182.6 136.1,180.1 130.6,180.1 130.6,180.9 140.2,183.5 148,183.5 148,180.1 
									"/>
			</g>
		</g>
	</g>
	<path class="door-fill" d="M195.5,3.5h-95.1v181.3l8.4,1.1l54,19V185h32.7V3.5z M159.1,199.7l-53.7-18.9V9.6l53.7,18.9V199.7z M192.5,182
		h-29.7V25.9L107.7,6.5h84.8V182z"/>
</g>
</svg>
