<svg id="Layer_1" xmlns="http://www.w3.org/2000/svg" xmlns:xlink="http://www.w3.org/1999/xlink" viewBox="0 0 300 202">
    <style>
        .lamp-on {
            fill: #fff;
        }
        .lamp-tidbits {
            fill: #fff;
        }

        .light-lines,
        .lamp-stroke {
            fill: none;
            stroke: #ffffff;
            stroke-miterlimit: 10;
        }

        .light-lines {
            stroke-linecap: round;
            stroke-linejoin: round;
            stroke-width: 3
        }

        .lamp-stroke {
            stroke-width: 3.7938
        }

    

        .lamp-behind {
            clip-path: url(#SVGID_2_);
            fill: none;
            stroke: #fff;
            stroke-width: 2.1436;
            stroke-miterlimit: 10
        }
    </style>
    <path class="lamp-on" d="M82.6 97.4h133.9l-27.2-82.2h-80.5z" />
    <path class="light-lines" d="M239.2 85.8l52.6-21.2M239.2 129.6l52.6 21.2M239.2 107.7h56.5" />
    <g>
        <path class="light-lines" d="M62.4 129.6L9.8 150.8M62.4 85.8L9.8 64.6M62.4 107.7H5.9" />
    </g>
    <g>
        <path class="lamp-stroke" d="M83.1 97.8h133.8l-27.1-82.3h-80.6z" />
        <path class="lamp-tidbits" d="M106.9 133.8h-8.2c-.3 0-.6-.2-.6-.6v-12.5c0-.3.2-.6.6-.6h8.2c.3 0 .6.2.6.6v12.5c0 .4-.3.6-.6.6zM101.3 101.6h3v16.8h-3z"
        />
        <path class="lamp-stroke" d="M192.6 172.3c1.2-2.9 1.9-6.2 1.9-9.5 0-.5 0-1-.1-1.6v-.4c0-.4-.1-.8-.1-1.2 0-.1 0-.3-.1-.4l-.3-1.5c0-.1 0-.1-.1-.2-.1-.4-.2-.8-.3-1.3 0-.1-.1-.3-.1-.4-.1-.4-.2-.8-.4-1.2 0-.1-.1-.2-.1-.3-.2-.5-.4-.9-.6-1.4 0-.1-.1-.2-.1-.2-.2-.4-.3-.8-.5-1.1-.1-.1-.1-.2-.2-.3-.2-.4-.5-.8-.7-1.3-.3-.4-.5-.9-.8-1.3l-.2-.2c-.2-.4-.5-.7-.8-1l-.2-.2c-.6-.8-2.2-2.4-2.2-2.4-.3-.3-5.1-3.8-5.1-3.8-16.4-9.6-20.8-15.5-21.8-20.1-.1-.8-.2-1.7-.2-2.6 0-1.7.2-3.3.6-4.8v-.1s0-.1.1-.1c.2-.6.4-1.2.6-1.7v-.3c0-1.9-1.6-3.5-3.5-3.5h-15.2c-1.9 0-3.5 1.6-3.5 3.5v.3c.2.5.4 1.1.6 1.7 0 0 0 .1.1.1v.1c.4 1.5.6 3.1.6 4.8 0 .9-.1 1.7-.2 2.6-1 4.7-5.4 10.5-21.8 20.1-.4.2-.9.5-1.3.8-.1 0-.1.1-.2.1-.9.6-1.7 1.2-2.5 1.8l-.1.1c-.4.3-.7.6-1 .9l-.2.2c-.7.7-1.4 1.5-2 2.2l-.2.2c-.3.3-.5.7-.8 1l-.2.2c-.3.4-.6.8-.8 1.3-.2.4-.5.8-.7 1.3-.1.1-.1.2-.2.3-.2.4-.4.7-.5 1.1 0 .1-.1.2-.1.2-.2.5-.4.9-.6 1.4 0 .1-.1.2-.1.3-.1.4-.3.8-.4 1.2 0 .1-.1.3-.1.4-.1.4-.2.8-.3 1.3 0 .1 0 .1-.1.2l-.3 1.5c0 .1 0 .3-.1.4-.1.4-.1.8-.1 1.2v.4c0 .5-.1 1-.1 1.6 0 3.4.7 6.6 1.9 9.5 1.9 6.1 6.1 11.1 11.6 14.1H181c5.5-2.9 9.7-7.9 11.6-14z"
        />
        <path class="lamp-tidbits" d="M186.6 194.4h-73c-.4 0-.7-.3-.7-.7v-6.5c0-.4.3-.7.7-.7h73c.4 0 .7.3.7.7v6.5c0 .4-.3.7-.7.7zM160.3 113.7h-20.7c-2.2 0-3.9-1.8-3.9-3.9 0-2.2 1.8-3.9 3.9-3.9h20.7c2.2 0 3.9 1.8 3.9 3.9 0 2.1-1.7 3.9-3.9 3.9z"
        />
        <g>
            <ellipse class="lamp-behind" cx="150" cy="16" rx="9.3" ry="5.3" />
        </g>
    </g>
</svg>