<svg id="Layer_1" xmlns="http://www.w3.org/2000/svg" xmlns:xlink="http://www.w3.org/1999/xlink" viewBox="0 0 226 228">
	<style>


		.remote-tidbit {
			fill: none
		}

		.wireless-rings {
			fill: none;
			stroke: #fff;
			stroke-width: 3.3441;
			stroke-miterlimit: 10
		}

		.remote-fill {
			fill: #00adee;
			stroke: #00adee;
			stroke-width: 10
		}

		.remote-stroke {
			fill: #fff
		}

	</style>
	<circle class="wireless-rings" cx="1220.4" cy="94" r="107.3" />
	<circle class="wireless-rings" cx="1220.4" cy="94" r="86.6" />
	<circle class="wireless-rings" cx="1220.4" cy="94" r="61.5" />
	<path class="remote-tidbit" d="M121.8 105.9h99.6v36h-99.6z" />
	<circle class="wireless-rings" cx="111.9" cy="114.5" r="107.3" />
	<circle class="wireless-rings" cx="111.9" cy="114.5" r="86.6" />
	<circle class="wireless-rings" cx="111.9" cy="114.5" r="61.5" />
	<path class="remote-fill" d="M1253.8-73.4H1187c-5.8 0-10.5-4.7-10.6-10.4l-.1-141.6c0-5.7 4.7-10.4 10.5-10.4h66.8c5.8 0 10.5 4.7 10.6 10.4l.1 141.6c0 5.8-4.7 10.4-10.5 10.4z"
	/>
	<path class="remote-stroke" d="M1253.8-73.4H1187c-5.8 0-10.5-4.7-10.6-10.4l-.1-141.6c0-5.7 4.7-10.4 10.5-10.4h66.8c5.8 0 10.5 4.7 10.6 10.4l.1 141.6c0 5.8-4.7 10.4-10.5 10.4zm-66.9-158.3c-3.6 0-6.4 2.9-6.4 6.4l.1 141.6c0 3.5 2.9 6.4 6.5 6.4h66.8c3.6 0 6.4-2.9 6.4-6.4l-.1-141.6c0-3.5-2.9-6.4-6.5-6.4h-66.8z"
	/>
	<path class="remote-stroke" d="M1242.6-90.5h-43.4c-4.2 0-7.6-3.4-7.6-7.5v-53.9c0-.7.6-1.3 1.4-1.3l55.8-.1c.4 0 .7.1 1 .4.3.3.4.6.4 1V-98c0 4.1-3.4 7.4-7.6 7.5zm-48.3-60V-98c0 2.6 2.2 4.8 4.9 4.8h43.4c2.7 0 4.9-2.2 4.9-4.8v-52.6l-53.2.1zM1193-156.3c-.4 0-.7-.1-1-.4-.3-.3-.4-.6-.4-1v-55.4c0-4.1 3.4-7.5 7.6-7.5h43.4c4.2 0 7.6 3.4 7.6 7.5v55.4c0 .7-.6 1.3-1.4 1.3l-55.8.1zm6.1-61.6c-2.7 0-4.9 2.2-4.9 4.8v54h53.1v-54c0-2.6-2.2-4.8-4.9-4.8h-43.3z"
	/>
	<path class="remote-stroke" d="M1201.1-205.2c-.8 0-1.4-.6-1.4-1.3v-8.1c0-.7.6-1.3 1.4-1.3s1.4.6 1.4 1.3v8.1c-.1.7-.7 1.3-1.4 1.3zM1201.6-138.7c-2.7 0-4.8-2.1-4.8-4.8 0-2.6 2.2-4.8 4.8-4.8 2.7 0 4.8 2.1 4.8 4.8.1 2.7-2.1 4.8-4.8 4.8zm0-6.8c-1.2 0-2.1.9-2.1 2.1 0 1.1.9 2.1 2.1 2.1 1.2 0 2.1-.9 2.1-2.1s-.9-2.1-2.1-2.1z"
	/>
	<g>
		<path class="remote-fill" d="M146.4 195.2H79.6c-5.8 0-10.5-4.7-10.6-10.4V43.2c0-5.7 4.7-10.4 10.5-10.4h66.8c5.8 0 10.5 4.7 10.6 10.4l.1 141.6c0 5.7-4.7 10.4-10.6 10.4z"
		/>
		<path class="remote-stroke" d="M146.4 195.2H79.6c-5.8 0-10.5-4.7-10.6-10.4V43.2c0-5.7 4.7-10.4 10.5-10.4h66.8c5.8 0 10.5 4.7 10.6 10.4l.1 141.6c0 5.7-4.7 10.4-10.6 10.4zM79.6 36.9c-3.6 0-6.4 2.9-6.4 6.4l.1 141.6c0 3.5 2.9 6.4 6.5 6.4h66.8c3.6 0 6.4-2.9 6.4-6.4l-.1-141.6c0-3.5-2.9-6.4-6.5-6.4H79.6z"
		/>
		<path class="remote-stroke" d="M135.2 178H91.8c-4.2 0-7.6-3.4-7.6-7.5v-53.9c0-.7.6-1.3 1.4-1.3l55.8-.1c.4 0 .7.1 1 .4.3.3.4.6.4 1v53.9c0 4.1-3.4 7.5-7.6 7.5zM87 118v52.5c0 2.6 2.2 4.8 4.9 4.8h43.4c2.7 0 4.9-2.2 4.9-4.8v-52.6L87 118zM85.6 112.2c-.4 0-.7-.1-1-.4-.3-.3-.4-.6-.4-1V55.4c0-4.1 3.4-7.5 7.6-7.5h43.4c4.2 0 7.6 3.4 7.6 7.5v55.4c0 .7-.6 1.3-1.4 1.3l-55.8.1zm6.2-61.5c-2.7 0-4.9 2.2-4.9 4.8v54H140v-54c0-2.6-2.2-4.8-4.9-4.8H91.8z"
		/>
		<path class="remote-stroke" d="M93.7 63.4c-.8 0-1.4-.6-1.4-1.3V54c0-.7.6-1.3 1.4-1.3.8 0 1.4.6 1.4 1.3v8.1c0 .7-.6 1.3-1.4 1.3zM94.3 129.8c-2.7 0-4.8-2.1-4.8-4.8 0-2.6 2.2-4.8 4.8-4.8 2.7 0 4.8 2.1 4.8 4.8 0 2.7-2.2 4.8-4.8 4.8zm0-6.8c-1.2 0-2.1.9-2.1 2.1 0 1.1.9 2.1 2.1 2.1 1.2 0 2.1-.9 2.1-2.1 0-1.2-1-2.1-2.1-2.1z"
		/>
	</g>
	<g>
		<path class="remote-fill" d="M596.2-73.4h-66.8c-5.8 0-10.5-4.7-10.6-10.4l-.1-141.6c0-5.7 4.7-10.4 10.5-10.4H596c5.8 0 10.5 4.7 10.6 10.4l.1 141.6c.1 5.8-4.7 10.4-10.5 10.4z"
		/>
		<path class="remote-stroke" d="M596.2-73.4h-66.8c-5.8 0-10.5-4.7-10.6-10.4l-.1-141.6c0-5.7 4.7-10.4 10.5-10.4H596c5.8 0 10.5 4.7 10.6 10.4l.1 141.6c.1 5.8-4.7 10.4-10.5 10.4zm-66.9-158.3c-3.6 0-6.4 2.9-6.4 6.4l.1 141.6c0 3.5 2.9 6.4 6.5 6.4h66.8c3.6 0 6.4-2.9 6.4-6.4l-.1-141.6c0-3.5-2.9-6.4-6.5-6.4h-66.8z"
		/>
		<path class="remote-stroke" d="M585-90.5h-43.4c-4.2 0-7.6-3.4-7.6-7.5v-53.9c0-.7.6-1.3 1.4-1.3l55.8-.1c.4 0 .7.1 1 .4.3.3.4.6.4 1V-98c0 4.1-3.4 7.4-7.6 7.5zm-48.2-60V-98c0 2.6 2.2 4.8 4.9 4.8h43.4c2.7 0 4.9-2.2 4.9-4.8v-52.6l-53.2.1zM535.4-156.3c-.4 0-.7-.1-1-.4-.3-.3-.4-.6-.4-1v-55.4c0-4.1 3.4-7.5 7.6-7.5H585c4.2 0 7.6 3.4 7.6 7.5v55.4c0 .7-.6 1.3-1.4 1.3l-55.8.1zm6.2-61.6c-2.7 0-4.9 2.2-4.9 4.8v54h53.1v-54c0-2.6-2.2-4.8-4.9-4.8h-43.3z"
		/>
		<path class="remote-stroke" d="M543.5-205.2c-.8 0-1.4-.6-1.4-1.3v-8.1c0-.7.6-1.3 1.4-1.3.8 0 1.4.6 1.4 1.3v8.1c0 .7-.6 1.3-1.4 1.3zM544.1-138.7c-2.7 0-4.8-2.1-4.8-4.8s2.2-4.8 4.8-4.8c2.7 0 4.8 2.1 4.8 4.8s-2.2 4.8-4.8 4.8zm0-6.8c-1.2 0-2.1.9-2.1 2.1 0 1.1.9 2.1 2.1 2.1 1.2 0 2.1-.9 2.1-2.1-.1-1.2-1-2.1-2.1-2.1z"
		/>
	</g>
	
</svg>