<?xml version="1.0" encoding="utf-8"?>
<!-- Generator: Adobe Illustrator 21.1.0, SVG Export Plug-In . SVG Version: 6.00 Build 0)  -->
<svg version="1.1" xmlns="http://www.w3.org/2000/svg" xmlns:xlink="http://www.w3.org/1999/xlink" x="0px" y="0px"
	 viewBox="0 0 171.3 235.3" style="enable-background:new 0 0 171.3 235.3;" xml:space="preserve">
<style type="text/css">

	.st5{fill:#FFFFFF;}
	
	.st115{fill-rule:evenodd;clip-rule:evenodd;fill:#FFFFFC;}
	
	.st127{fill:none;stroke:#FFFFFF;stroke-width:2.4218;stroke-miterlimit:10;}

</style>
	<g>
		<defs>
			<rect id="SVGID_74_" x="-1248.9" y="-562.4" width="776.9" height="543.8"/>
		</defs>
		<clipPath id="SVGID_2_">
			<use xlink:href="#SVGID_74_"  style="overflow:visible;"/>
		</clipPath>
			
		</g>
	<path class="st115" d="M70.3,104.8c0.1-0.7,0.2-1.2-1-3.1c-2-3.1-0.8-4.7-2.2-8.9c-0.9-2.8-2.1-4.4-3.3-5.4c-2.2-0.8-7.7-3-1.6-3.6
		c1.1,0.2,1.3-1.1,1.3-1.7c0-0.9,0.4-1.7,0.2-2c0.4-0.4,0.5-1.2,0.5-1.2c1.1,0,1.6-0.2,1.5-1.1c-0.1-0.9-1.2-2.2-1.4-2.8
		c0-0.6,0.2-0.8,0.2-1.2c0.5-0.3,0.7-1.4,0.7-2.3c0-0.9-0.7-3.8-0.7-3.8c0.1,0,0.2-0.1,0.3-0.2c0.6-2.5-0.2-3.6-0.2-3.6
		c-0.5-0.2-0.5-1.1-0.7-1.4c0,0.3-0.5,0.3-1-0.4c-0.5-0.6-2.2-0.6-2.3-0.8c-0.1-0.2,0.1-0.4,0.4-0.3c-0.3-0.4-1.2-0.1-1.5-0.3
		c-0.2-0.2-0.7-0.8-0.7-0.8s0.2,0.5-0.2,0.4c-0.5-0.1-2.4-0.8-4.3-0.3c-0.4,0.2-0.7,0-0.5-0.3c-0.9,0-1.3,0.7-1.4,1
		c-1.2-0.2-1.6,0.8-2.7,1.2c-1.2,0.4-2.9,1.9-3.1,3.5c-0.2,1.6-1.1,1.6-1,3.8c0.2,2.1,0.9,2,0.8,3.1c0,1.1,0.6,2.6,1.1,3.9
		c0.5,1.3,1.5,3.1,1.5,3.1c-1.6,1.5-2.6,4.3-2.6,4.3s-1.4,0.5-2.2,1.5c-0.9,1-4.1,2.1-5.4,3.2c-1.3,1.2-2.3,0.4-3.3,2.6
		c-1,2.2-2.9,3.5-3.4,5.7c-0.5,2.3-1.1,1.9-1.8,4.6c-0.7,2.7-3.4,8.4-3.9,11c-0.5,2.6-2.2,5.8-0.3,7.5c1.9,1.7,7.1,5.2,8,5.6
		c0.3,2.1-0.5,2.9-0.6,4.4c-0.1,1.5,1.6,1.8,1.6,1.8c-0.3,0.3-0.3,1.2-0.3,1.7c0.1,0.4-1.1,1.4-1,2.6c0.2,0.1,0.1,0.3-0.2,0.9
		c-0.2,0.6-2.4,10.8,6.7,17.9c-0.4,0.6,0.2,1.2-0.3,1.6c-0.4,0.4-0.9,0.7-0.6,1.7c0.3,1.1-1.4,2.5-1.5,4.9c-0.2,2.5-0.2,2.9-0.7,3.4
		c-0.6,0.5-1.4,1.8-1.3,3.2c0.2,1.4-0.8,1-0.9,2c-0.2,1,0.4,1.5-0.2,2.4c-0.6,0.9-0.8,1.6-1,3.5c-0.2,1.9-3.3,3.9-5.6,7.4
		c-2.3,3.6-5.2,11.5-6.1,12.6c-0.9,1.2-0.5,1.9-2.8,5c-2.2,3.2-7.7,13.2-7.7,13.2l0.2,0.4c0,0-0.8,1.1-1,2c-1.6,0.9-2.2,2.3-2.7,3
		c1.6,2.7,6.5,5.2,6.5,5.2l1.5,0.2l0.4-0.1c1.1,2,4.1,5.2,8.7,5.3c4.7,0.1,8.4-0.7,9-1.3c0.3-1,0-2.4-2-2.7c-2-0.3-5.4-0.3-6.6-1.3
		c-0.4-2-0.6-4.3-0.6-4.3c0.2,0,0.4-0.2,0.7-3.2c0.3-2.9,2.3-6.2,2.4-9.8c1.4-1.2,0.9-1.6,2.7-4c1.1-0.7,2.2-2.8,2.2-2.8
		c3-3.7,4.2-7.1,6.8-10c0.6-0.6,1.3-1.6,2-2.8c1.3-1,1.9-3.1,1.9-3.1c2.3-4,4.7-8.6,6-10.3c0.3,2.8,3.1,2.7,4.1,5.6
		c1,2.9,0.3,3,1.6,4.8c1.3,1.8,0.1,2.1,1.6,4.9c0.9,1.6,1,2.7,1.2,3.7c0,0-0.2,1.4,1.9,4.5c0,1-0.1,2,0.7,3.8
		c1.3,3.1,2.1,7.3,3.8,8.6c1.7,1.3,0.3,2.6,1.4,4.2c0.4,0.6,0.6,0.9,0.8,1.1c0,0,0.3,2.5-0.4,3.6c0,0.1,0,0.3,0,0.4
		c-0.3,0.2-0.7,2.5-0.4,3.7c1.3,0.8,7.7,0.6,9.1,0c0.1-0.6,0.2-1.5,0.2-1.5c3,0.3,6.1-0.2,8.3-1.5l0.2-0.2c3.4-2.1,3-3.6,3-3.6
		c-0.3-0.8-1-1.9-2.7-1.3c-2,0.7-3,1-4.9,0.8c-1.3-1.1-1.1-1.7-1.1-1.7c0.8-0.1,1.1-0.7,1.1-0.7c-0.1-2.2-1.7-8-4.4-12.5
		c-0.5-1.2-3.1-4-3.1-4c-3.3-4.5-4.1-11.5-4.9-13.9c-0.8-2.4,0.6-2.7,0.4-6.2c-0.1-2.4-0.5-4-0.5-4c-0.7-4.2-1.8-9.4-3.1-12.2
		c-1.7-3.5-2.5-4.5-2.5-6c0.1-1.5-0.9-1.5-0.6-2.2c0.4-0.7-0.3-1.4-0.1-2c0.2-0.6-0.4-2.8-0.1-3.3c0.4-0.5-0.1-1.4,0.2-1.9
		c0.2-0.4-0.6-0.5-0.1-1.5c0.5-1.1-0.1-1.4,0.3-2.4c0.4-1.1-0.1-1.9,0.1-2.7c0.2-0.8,0.1-2.8-0.4-3.6c0.3-0.8-0.3-2.1,0.4-2.6
		c0.7-0.5,1.1-0.7,1.2-2.9c0.1-2.3-0.3-5.8-0.2-7.2c0.1-1.4-0.9-2.2-0.3-4c0.6-1.9,0.3-3.6,0.7-5.3c1.3,1.2,2.7,4.3,3.5,4.7
		c0.8,0.4,1.1,1.3,2.5,3.2c1.8,2.4,5.6,5.7,6.9,7c1.3,1.4,2.5,2.5,3.2,2.3c0.7-0.2,0.6,1.3,2.4,1.6c0.4,0.7,1.5,1.9,2.6,2
		c1,0.1,2.2-0.3,2.2-0.3c0.9,0.3,1.1,0.4,1.1,0.4c-0.2,0.2-0.2,0.7,0.2,0.7c-0.1,0.4-0.3,1,0,1.3c-0.4,0.3-0.6,1.1,0.2,1.1
		c0.8,0.1,1.2-0.1,1.6-0.7c0.4-0.6,0.9-1,0.8-1.8c0.5-0.4,0.6-0.7,0.3-1.8c-0.4-1.1-0.7-2.5-0.9-3c-0.2-0.5-2.2-1.5-2.2-1.5
		c0-0.2-0.9-0.9-0.9-0.9c0-0.9-1.6-1.7-1.9-2.9c-0.3-1.2-0.4-1.9-1.5-2.3c-1.1-0.4-1.1-1.3-1.8-1.6c-0.6-0.3-1.9-4.2-3.6-5.7
		c-1.7-1.5-0.7-2.2-1.6-3.6c-0.7-1.1-2.5-3.3-3.7-5.4C71.1,107.1,69.9,105.9,70.3,104.8z"/>
	<g>
		<circle class="st127" cx="125.8" cy="44.6" r="39.6"/>
		<circle class="st127" cx="125.8" cy="44.6" r="27.4"/>
		<circle class="st127" cx="125.8" cy="44.6" r="15.4"/>
	</g>
	<path class="st5" d="M130.2,38.2h-9c-1.5,0-2.6,1.2-2.6,2.6v7.6c0,1.5,1.2,2.6,2.6,2.6h9c1.5,0,2.6-1.2,2.6-2.6v-7.6
		C132.8,39.3,131.6,38.2,130.2,38.2z M131.9,42.2v5c0,0,0,1-0.6,1c-1.7-0.2-3.5-0.3-5.4-0.3c-3,0-5.4,0.1-5.4,0.1l-0.2,0
		c-0.9,0.1-0.8-1-0.8-1v-4.9c0,0,0-0.6,0.5-0.8c1.9-0.2,3.8-0.3,5.9-0.3c1.5,0,2.9,0.1,4.3,0.2l0.9,0.1
		C132,41.4,131.9,42.2,131.9,42.2z"/>

 </svg>
